<svg xmlns="http://www.w3.org/2000/svg" width="508.75" height="97.83" viewBox="0 0 508.75 97.83">
  <g id="ann_healthCare" transform="translate(-48.73 -48.82)">
    <g id="Group_32" data-name="Group 32">
      <g id="Group_31" data-name="Group 31">
        <path id="Path_103" data-name="Path 103" d="M192.18,146.38h-3.37v-8.64H180.1v8.64h-3.38V126.91h3.38v8.1h8.71v-8.1h3.37Z" fill="#00956c"/>
        <path id="Path_104" data-name="Path 104" d="M207.84,137.69h-8v5.99h9.35v2.7H196.46V126.91H209.1v2.73h-9.25v5.38h8v2.67Z" fill="#00956c"/>
        <path id="Path_105" data-name="Path 105" d="M223.12,141.85h-7.54L214,146.38h-3.52l7.36-19.47h3.04l7.37,19.47h-3.53Zm-6.6-2.73h5.64l-2.82-8.08Z" fill="#00956c"/>
        <path id="Path_106" data-name="Path 106" d="M234.1,143.68h8.84v2.7H230.72V126.91h3.38Z" fill="#00956c"/>
        <path id="Path_107" data-name="Path 107" d="M257.14,129.64h-6.07v16.74h-3.36V129.64h-6.02v-2.73h15.45Z" fill="#00956c"/>
        <path id="Path_108" data-name="Path 108" d="M275.43,146.38h-3.37v-8.64h-8.71v8.64h-3.38V126.91h3.38v8.1h8.71v-8.1h3.37Z" fill="#00956c"/>
        <path id="Path_109" data-name="Path 109" d="M294.56,140.04a7.02,7.02,0,0,1-2.3,4.86,7.877,7.877,0,0,1-5.34,1.75,7.643,7.643,0,0,1-4.1-1.1,7.237,7.237,0,0,1-2.73-3.14,11.262,11.262,0,0,1-1-4.72v-1.82a11.348,11.348,0,0,1,.98-4.85,7.35,7.35,0,0,1,2.8-3.24,7.8,7.8,0,0,1,4.22-1.14,7.5,7.5,0,0,1,5.19,1.75,7.315,7.315,0,0,1,2.29,4.94H291.2a4.839,4.839,0,0,0-1.22-3.03,4.055,4.055,0,0,0-2.88-.93,3.964,3.964,0,0,0-3.39,1.61,8.051,8.051,0,0,0-1.21,4.73v1.73a8.583,8.583,0,0,0,1.13,4.82,3.742,3.742,0,0,0,3.31,1.66,4.373,4.373,0,0,0,3-.9,4.676,4.676,0,0,0,1.27-2.98h3.35Z" fill="#00956c"/>
        <path id="Path_110" data-name="Path 110" d="M308.75,141.85h-7.54l-1.58,4.53h-3.52l7.36-19.47h3.04l7.37,19.47h-3.53Zm-6.59-2.73h5.64l-2.82-8.08Z" fill="#00956c"/>
        <path id="Path_111" data-name="Path 111" d="M323.51,138.89h-3.77v7.49h-3.38V126.91h6.85a7.94,7.94,0,0,1,5.2,1.51,5.362,5.362,0,0,1,1.83,4.38,5.47,5.47,0,0,1-.94,3.27,6.024,6.024,0,0,1-2.63,2.03l4.37,8.11v.17h-3.62Zm-3.77-2.72h3.48a3.877,3.877,0,0,0,2.67-.86,3,3,0,0,0,.96-2.36,3.216,3.216,0,0,0-.89-2.42,3.785,3.785,0,0,0-2.65-.88h-3.57Z" fill="#00956c"/>
        <path id="Path_112" data-name="Path 112" d="M345.1,137.69h-8v5.99h9.35v2.7H333.72V126.91h12.64v2.73h-9.25v5.38h8v2.67Z" fill="#00956c"/>
      </g>
    </g>
    <g id="Group_33" data-name="Group 33">
      <path id="Path_113" data-name="Path 113" d="M206.67,115.4q-.78-2.28-1.61-4.5c-.56-1.48-1.09-3-1.61-4.55H187.19c-.52,1.56-1.05,3.08-1.59,4.58s-1.07,2.99-1.59,4.47h-7.28q2.16-6.165,4.11-11.38,1.935-5.22,3.8-9.89t3.69-8.89q1.83-4.215,3.77-8.33h6.68c1.3,2.74,2.55,5.52,3.78,8.33s2.45,5.78,3.69,8.89,2.52,6.41,3.83,9.89,2.69,7.27,4.14,11.38ZM195.31,84.36q-1.275,2.94-2.92,7.16t-3.42,9.16h12.66q-1.785-4.935-3.44-9.22Q196.54,87.2,195.31,84.36Z" fill="#221f1f"/>
      <path id="Path_114" data-name="Path 114" d="M217.89,87.3a44.773,44.773,0,0,1,5.05-1.05,43.953,43.953,0,0,1,6.89-.5,15.776,15.776,0,0,1,5.94.97,9.316,9.316,0,0,1,3.8,2.72,10.468,10.468,0,0,1,2,4.22,23.5,23.5,0,0,1,.58,5.41V115.4h-6.72V100.13a21.457,21.457,0,0,0-.31-3.97,7.094,7.094,0,0,0-1-2.67,4.026,4.026,0,0,0-1.89-1.5,8.085,8.085,0,0,0-2.92-.47,22.8,22.8,0,0,0-2.67.17c-.93.11-1.61.2-2.05.28V115.4h-6.72V87.3Z" fill="#221f1f"/>
      <path id="Path_115" data-name="Path 115" d="M249.54,87.3a44.773,44.773,0,0,1,5.05-1.05,43.953,43.953,0,0,1,6.89-.5,15.776,15.776,0,0,1,5.94.97,9.316,9.316,0,0,1,3.8,2.72,10.469,10.469,0,0,1,2,4.22,23.5,23.5,0,0,1,.58,5.41V115.4h-6.72V100.13a21.457,21.457,0,0,0-.31-3.97,7.094,7.094,0,0,0-1-2.67,4.025,4.025,0,0,0-1.89-1.5,8.085,8.085,0,0,0-2.92-.47,22.8,22.8,0,0,0-2.67.17c-.93.11-1.61.2-2.05.28V115.4h-6.72V87.3Z" fill="#221f1f"/>
      <path id="Path_116" data-name="Path 116" d="M290.86,85.63a16.6,16.6,0,0,1,5.61.83,9.013,9.013,0,0,1,3.64,2.33,8.586,8.586,0,0,1,1.94,3.64,17.773,17.773,0,0,1,.58,4.69v17.6c-1.04.22-2.6.49-4.69.81a48.552,48.552,0,0,1-7.08.47,21.518,21.518,0,0,1-4.78-.5,9.949,9.949,0,0,1-3.69-1.61A7.607,7.607,0,0,1,280,111a10.072,10.072,0,0,1-.86-4.39,8.443,8.443,0,0,1,.97-4.22,7.958,7.958,0,0,1,2.64-2.8,11.592,11.592,0,0,1,3.86-1.56,22.022,22.022,0,0,1,4.58-.47,21.212,21.212,0,0,1,2.33.14,21.96,21.96,0,0,1,2.61.47V97.06a8.441,8.441,0,0,0-.28-2.22,4.739,4.739,0,0,0-.97-1.86,4.519,4.519,0,0,0-1.83-1.25,7.851,7.851,0,0,0-2.86-.44,25.749,25.749,0,0,0-4.28.33,18.31,18.31,0,0,0-3.17.78l-.83-5.44a26.312,26.312,0,0,1,3.72-.89A29.821,29.821,0,0,1,290.86,85.63Zm.55,25.05a25.234,25.234,0,0,0,4.72-.33v-7.44a13.3,13.3,0,0,0-1.61-.33,15.074,15.074,0,0,0-2.33-.17,15.707,15.707,0,0,0-2.25.17,7.115,7.115,0,0,0-2.05.61,3.732,3.732,0,0,0-1.47,1.25,3.5,3.5,0,0,0-.56,2.03,3.547,3.547,0,0,0,1.5,3.3A7.739,7.739,0,0,0,291.41,110.68Z" fill="#221f1f"/>
      <path id="Path_117" data-name="Path 117" d="M310.01,87.3a44.536,44.536,0,0,1,5.06-1.05,43.953,43.953,0,0,1,6.89-.5,15.776,15.776,0,0,1,5.94.97,9.316,9.316,0,0,1,3.8,2.72,10.469,10.469,0,0,1,2,4.22,23.5,23.5,0,0,1,.58,5.41V115.4h-6.72V100.13a21.457,21.457,0,0,0-.31-3.97,7.094,7.094,0,0,0-1-2.67,4.025,4.025,0,0,0-1.89-1.5,7.874,7.874,0,0,0-2.92-.47,22.8,22.8,0,0,0-2.67.17c-.93.11-1.61.2-2.05.28V115.4H310V87.3Z" fill="#221f1f"/>
      <path id="Path_118" data-name="Path 118" d="M341.33,78.69l6.72-1.11v8.77h10.33v5.61H348.05v11.83q0,3.5,1.11,5a4.4,4.4,0,0,0,3.78,1.5,12.321,12.321,0,0,0,3.25-.39,23.614,23.614,0,0,0,2.25-.72l1.11,5.33a26.017,26.017,0,0,1-3.05,1.03,16.678,16.678,0,0,1-4.44.53,14.181,14.181,0,0,1-5.19-.83,7.613,7.613,0,0,1-3.3-2.42,9.609,9.609,0,0,1-1.72-3.83,24.013,24.013,0,0,1-.5-5.14V78.69Z" fill="#221f1f"/>
      <path id="Path_119" data-name="Path 119" d="M373.71,85.63a16.6,16.6,0,0,1,5.61.83,9.013,9.013,0,0,1,3.64,2.33,8.586,8.586,0,0,1,1.94,3.64,17.773,17.773,0,0,1,.58,4.69v17.6c-1.04.22-2.6.49-4.69.81a48.552,48.552,0,0,1-7.08.47,21.518,21.518,0,0,1-4.78-.5,10.022,10.022,0,0,1-3.69-1.61,7.607,7.607,0,0,1-2.39-2.89,10.072,10.072,0,0,1-.86-4.39,8.443,8.443,0,0,1,.97-4.22,7.958,7.958,0,0,1,2.64-2.8,11.592,11.592,0,0,1,3.86-1.56,22.022,22.022,0,0,1,4.58-.47,21.212,21.212,0,0,1,2.33.14,21.96,21.96,0,0,1,2.61.47V97.06a8.441,8.441,0,0,0-.28-2.22,4.739,4.739,0,0,0-.97-1.86,4.519,4.519,0,0,0-1.83-1.25,7.851,7.851,0,0,0-2.86-.44,25.663,25.663,0,0,0-4.28.33,18.31,18.31,0,0,0-3.17.78l-.83-5.44a26.312,26.312,0,0,1,3.72-.89A29.987,29.987,0,0,1,373.71,85.63Zm.56,25.05a25.234,25.234,0,0,0,4.72-.33v-7.44a13.3,13.3,0,0,0-1.61-.33,15.074,15.074,0,0,0-2.33-.17,15.707,15.707,0,0,0-2.25.17,7.115,7.115,0,0,0-2.05.61,3.732,3.732,0,0,0-1.47,1.25,3.5,3.5,0,0,0-.56,2.03,3.547,3.547,0,0,0,1.5,3.3A7.691,7.691,0,0,0,374.27,110.68Z" fill="#221f1f"/>
      <path id="Path_120" data-name="Path 120" d="M402.53,110.18q3.78,0,5.5-1.28a4.216,4.216,0,0,0,1.72-3.61,4.676,4.676,0,0,0-.58-2.39,5.89,5.89,0,0,0-1.67-1.8,13.5,13.5,0,0,0-2.64-1.5c-1.04-.46-2.22-.92-3.55-1.36-1.33-.48-2.62-1.01-3.86-1.58a13.081,13.081,0,0,1-3.28-2.14,10.037,10.037,0,0,1-2.28-3.05,9.778,9.778,0,0,1-.86-4.28A10.019,10.019,0,0,1,394.64,79q3.615-2.97,9.83-2.97a23.1,23.1,0,0,1,6.41.81,19.941,19.941,0,0,1,4.42,1.75l-2.17,5.66a16.74,16.74,0,0,0-4.14-1.61,19.326,19.326,0,0,0-4.64-.56,7.325,7.325,0,0,0-4.42,1.17,3.85,3.85,0,0,0-1.58,3.28,4.231,4.231,0,0,0,.53,2.19,5.378,5.378,0,0,0,1.5,1.64,12.916,12.916,0,0,0,2.28,1.33c.87.41,1.82.8,2.86,1.17,1.81.67,3.43,1.34,4.86,2.03a13.771,13.771,0,0,1,3.61,2.44,9.527,9.527,0,0,1,2.25,3.33,12.3,12.3,0,0,1,.78,4.64,9.633,9.633,0,0,1-3.69,8.08q-3.69,2.865-10.8,2.86a29.084,29.084,0,0,1-4.36-.3,26.885,26.885,0,0,1-3.5-.75,23.378,23.378,0,0,1-2.64-.92,15.887,15.887,0,0,1-1.78-.86l2.05-5.72a23.731,23.731,0,0,0,4.05,1.67A20.7,20.7,0,0,0,402.53,110.18Z" fill="#221f1f"/>
      <path id="Path_121" data-name="Path 121" d="M448.29,100.85a18.676,18.676,0,0,1-1,6.28,13.919,13.919,0,0,1-2.83,4.83,12.691,12.691,0,0,1-4.42,3.11,14.261,14.261,0,0,1-5.69,1.11,14.046,14.046,0,0,1-5.66-1.11,12.951,12.951,0,0,1-4.39-3.11,13.977,13.977,0,0,1-2.86-4.83,18.185,18.185,0,0,1-1.03-6.28,17.972,17.972,0,0,1,1.03-6.25,13.934,13.934,0,0,1,2.89-4.8,12.721,12.721,0,0,1,4.42-3.08,14.241,14.241,0,0,1,5.61-1.08A14.461,14.461,0,0,1,440,86.72a12.411,12.411,0,0,1,4.41,3.08,14.187,14.187,0,0,1,2.86,4.8A18.21,18.21,0,0,1,448.29,100.85Zm-6.89,0a11.348,11.348,0,0,0-1.86-6.86,6.588,6.588,0,0,0-10.38,0,11.348,11.348,0,0,0-1.86,6.86,11.546,11.546,0,0,0,1.86,6.94,6.557,6.557,0,0,0,10.38,0A11.546,11.546,0,0,0,441.4,100.85Z" fill="#221f1f"/>
      <path id="Path_122" data-name="Path 122" d="M478.22,114.51c-1.3.33-2.98.68-5.05,1.03a41.094,41.094,0,0,1-6.83.53,15,15,0,0,1-5.86-1,9.473,9.473,0,0,1-3.78-2.78,10.979,10.979,0,0,1-2.03-4.25,22.4,22.4,0,0,1-.61-5.41V86.36h6.72v15.22q0,4.665,1.36,6.66t4.75,2c.81,0,1.67-.04,2.58-.11a13.309,13.309,0,0,0,2.03-.28V86.36h6.72v28.15Z" fill="#221f1f"/>
      <path id="Path_123" data-name="Path 123" d="M502.49,92.41a19.847,19.847,0,0,0-2.3-.58,17.261,17.261,0,0,0-3.42-.3,13.293,13.293,0,0,0-2.36.22,14.72,14.72,0,0,0-1.75.39v23.27h-6.72V87.74a38.214,38.214,0,0,1,4.86-1.36,29.993,29.993,0,0,1,6.47-.64c.44,0,.96.03,1.55.08s1.18.13,1.78.22,1.17.2,1.72.33,1,.25,1.33.36Z" fill="#221f1f"/>
      <path id="Path_124" data-name="Path 124" d="M505.88,100.91a17.646,17.646,0,0,1,1-6.02,14.366,14.366,0,0,1,2.86-4.86,13.118,13.118,0,0,1,4.53-3.22,14.8,14.8,0,0,1,6-1.17,20.289,20.289,0,0,1,7.77,1.5l-1.44,5.5a15.482,15.482,0,0,0-2.64-.83,14.334,14.334,0,0,0-3.14-.33,7.35,7.35,0,0,0-6,2.47q-2.055,2.475-2.05,6.97a11.026,11.026,0,0,0,1.94,6.86q1.95,2.535,6.55,2.53a17.394,17.394,0,0,0,3.39-.33,16.2,16.2,0,0,0,2.89-.83l.94,5.55a14.154,14.154,0,0,1-3.36,1,23.63,23.63,0,0,1-4.64.44,16.81,16.81,0,0,1-6.47-1.14,12.271,12.271,0,0,1-4.55-3.16,13.1,13.1,0,0,1-2.69-4.83A20.036,20.036,0,0,1,505.88,100.91Z" fill="#221f1f"/>
      <path id="Path_125" data-name="Path 125" d="M531.26,101.02a18.264,18.264,0,0,1,1.14-6.72,14.078,14.078,0,0,1,3.03-4.8,12.521,12.521,0,0,1,4.33-2.89,13.357,13.357,0,0,1,5-.97q6,0,9.36,3.72t3.36,11.11c0,.37-.01.79-.03,1.25s-.05.88-.08,1.25H538.2a7.668,7.668,0,0,0,2.47,5.41q2.19,1.92,6.36,1.92a21.3,21.3,0,0,0,4.47-.44,18.876,18.876,0,0,0,3.19-.94l.89,5.5a9.8,9.8,0,0,1-1.53.58c-.65.2-1.39.39-2.22.56s-1.73.3-2.69.42a25.8,25.8,0,0,1-2.94.17,17.716,17.716,0,0,1-6.66-1.14,12.377,12.377,0,0,1-4.66-3.16,12.909,12.909,0,0,1-2.72-4.78A19.279,19.279,0,0,1,531.26,101.02Zm19.49-3a8.877,8.877,0,0,0-.39-2.64,6.418,6.418,0,0,0-1.14-2.17,5.374,5.374,0,0,0-1.83-1.44,5.849,5.849,0,0,0-2.58-.53,5.987,5.987,0,0,0-2.72.58,6.111,6.111,0,0,0-1.97,1.53,6.959,6.959,0,0,0-1.25,2.17,11.41,11.41,0,0,0-.61,2.5Z" fill="#221f1f"/>
    </g>
    <g id="Group_37" data-name="Group 37">
      <g id="Group_34" data-name="Group 34">
        <path id="Path_126" data-name="Path 126" d="M112.97,146.39a16.71,16.71,0,0,1-11.84-4.89l-2.51-2.51,5.03-5.03,2.51,2.51a9.642,9.642,0,0,0,13.62,0l32.05-32.05a9.633,9.633,0,0,0,0-13.62L119.78,58.75a9.633,9.633,0,0,0-13.62,0l-2.51,2.51-5.03-5.03,2.51-2.51a16.755,16.755,0,0,1,23.68,0l32.05,32.05a16.755,16.755,0,0,1,0,23.68L124.81,141.5A16.693,16.693,0,0,1,112.97,146.39Z" fill="#221f1f"/>
      </g>
      <g id="Group_35" data-name="Group 35">
        <path id="Path_127" data-name="Path 127" d="M86.68,135.56a13.555,13.555,0,0,1-9.64-3.99L52.72,107.25a13.652,13.652,0,0,1,0-19.29L77.04,63.64a13.652,13.652,0,0,1,19.29,0l2.57,2.57-5.14,5.14-2.57-2.57a6.386,6.386,0,0,0-9.01,0L57.86,93.1a6.386,6.386,0,0,0,0,9.01l24.32,24.32a6.349,6.349,0,0,0,9,0l2.57-2.57L98.9,129l-2.57,2.57A13.579,13.579,0,0,1,86.68,135.56Z" fill="#221f1f"/>
      </g>
      <g id="Group_36" data-name="Group 36">
        <path id="Path_128" data-name="Path 128" d="M103.6,124.11l-4.93-4.93,17.23-17.23a6.12,6.12,0,0,0,0-8.64L98.61,76.03l4.93-4.93,17.29,17.29a13.1,13.1,0,0,1,0,18.5Z" fill="#00956c"/>
      </g>
    </g>
  </g>
</svg>
